# xmcd
#
# Track frame offsets: 
#        150
#        14368
#        28140
#        49242
#        64471
#        76243
#        91325
#        110431
#        132686
#        150311
#        169164
#        180315
#
# Disc length: 2983 seconds
#
# Revision: 0
# Processed by: cddbd v1.5.2PL0 Copyright (c) Steve Scherf et al.
# Submitted via: ExactAudioCopy v0.99pb4
#
DISCID=990ba50c
DTITLE=Seamless - Seamless
DYEAR=2008
DGENRE=Contemporary Christian
TTITLE0=Life
TTITLE1=Romanced
TTITLE2=Look Inside
TTITLE3=You Reign
TTITLE4=Bye and Bye
TTITLE5=Blessing
TTITLE6=Lost and Found
TTITLE7=Tick-Tock
TTITLE8=Prayer
TTITLE9=Nothing
TTITLE10=Where I Can Stay
TTITLE11=The One
EXTD=
EXTT0=
EXTT1=
EXTT2=
EXTT3=
EXTT4=
EXTT5=
EXTT6=
EXTT7=
EXTT8=
EXTT9=
EXTT10=
EXTT11=
PLAYORDER=
